# xmcd
#
# Track frame offsets: 
#        150
#        10600
#        20387
#        29697
#        39612
#        53927
#        64467
#        75552
#        86645
#        96375
#        106522
#        117440
#        130215
#        140710
#        152852
#        168067
#        182340
#        194642
#        205085
#        218482
#
# Disc length: 3064 seconds
#
# Revision: 8
# Processed by: cddbd v1.5.2PL0 Copyright (c) Steve Scherf et al.
# Submitted via: ExactAudioCopyFreeDBPlugin 1.0
#
DISCID=100bf614
DTITLE=Chet Atkins - Guitar Man
DYEAR=2000
DGENRE=Country
TTITLE0=Mr sandman
TTITLE1=Boo boo stick beat
TTITLE2=Yakety axe
TTITLE3=Jerry's breakdown
TTITLE4=Fiddlin' around
TTITLE5=The entertainer (Theme from the sting)
TTITLE6=Heartbreak hotel
TTITLE7=Blackjack
TTITLE8=One mint julep
TTITLE9=Teensville
TTITLE10=Hot toddy
TTITLE11=Mystery train
TTITLE12=Susie-Q
TTITLE13=Do i ever cross your mind?
TTITLE14=I'll see you in my dreams
TTITLE15=Tennessee stud
TTITLE16=Take five
TTITLE17=Trambone
TTITLE18=It don't mean a thing (If it ain't got that swing)
TTITLE19=Sleepwalk
EXTD=CHET ATKINS - GUITAR MAN\n(1955 - 1981]\n\nCamden - BMG\n74321 75
EXTD=4082
EXTT0=
EXTT1=
EXTT2=
EXTT3=
EXTT4=
EXTT5=
EXTT6=
EXTT7=
EXTT8=
EXTT9=
EXTT10=
EXTT11=
EXTT12=
EXTT13=
EXTT14=
EXTT15=
EXTT16=
EXTT17=
EXTT18=
EXTT19=
PLAYORDER=
